# 3ds Max Wavefront OBJ Exporter v0.97b - (c)2007 guruware
# File Created: 27.03.2014 20:40:05

mtllib sphere250_20.mtl

#
# object Sphere001
#

v  0.0000 125.0000 -0.0000
v  -0.0000 118.8821 -38.6271
v  -11.9364 118.8821 -36.7366
v  -22.7045 118.8821 -31.2500
v  -31.2500 118.8821 -22.7045
v  -36.7366 118.8821 -11.9364
v  -38.6271 118.8821 0.0000
v  -36.7366 118.8821 11.9365
v  -31.2500 118.8821 22.7045
v  -22.7044 118.8821 31.2500
v  -11.9364 118.8821 36.7366
v  0.0000 118.8821 38.6271
v  11.9365 118.8821 36.7366
v  22.7045 118.8821 31.2500
v  31.2500 118.8821 22.7044
v  36.7366 118.8821 11.9364
v  38.6271 118.8821 -0.0001
v  36.7366 118.8821 -11.9365
v  31.2500 118.8821 -22.7045
v  22.7044 118.8821 -31.2500
v  11.9364 118.8821 -36.7366
v  -0.0000 101.1271 -73.4732
v  -22.7045 101.1271 -69.8771
v  -43.1864 101.1271 -59.4410
v  -59.4410 101.1271 -43.1864
v  -69.8771 101.1271 -22.7044
v  -73.4732 101.1271 0.0000
v  -69.8771 101.1271 22.7045
v  -59.4410 101.1271 43.1865
v  -43.1864 101.1271 59.4411
v  -22.7044 101.1271 69.8771
v  0.0001 101.1271 73.4732
v  22.7045 101.1271 69.8771
v  43.1865 101.1271 59.4410
v  59.4411 101.1271 43.1864
v  69.8772 101.1271 22.7043
v  73.4732 101.1271 -0.0001
v  69.8771 101.1271 -22.7046
v  59.4410 101.1271 -43.1865
v  43.1863 101.1271 -59.4411
v  22.7043 101.1271 -69.8772
v  -0.0000 73.4732 -101.1271
v  -31.2500 73.4732 -96.1776
v  -59.4410 73.4732 -81.8136
v  -81.8136 73.4732 -59.4410
v  -96.1776 73.4732 -31.2500
v  -101.1271 73.4732 0.0000
v  -96.1776 73.4732 31.2500
v  -81.8135 73.4732 59.4411
v  -59.4410 73.4732 81.8136
v  -31.2499 73.4732 96.1776
v  0.0001 73.4732 101.1271
v  31.2501 73.4732 96.1776
v  59.4411 73.4732 81.8135
v  81.8136 73.4732 59.4409
v  96.1777 73.4732 31.2499
v  101.1271 73.4732 -0.0002
v  96.1776 73.4732 -31.2502
v  81.8135 73.4732 -59.4412
v  59.4409 73.4732 -81.8137
v  31.2498 73.4732 -96.1777
v  -0.0000 38.6271 -118.8821
v  -36.7366 38.6271 -113.0636
v  -69.8771 38.6271 -96.1776
v  -96.1776 38.6271 -69.8771
v  -113.0636 38.6271 -36.7366
v  -118.8821 38.6271 0.0000
v  -113.0635 38.6271 36.7366
v  -96.1776 38.6271 69.8772
v  -69.8771 38.6271 96.1777
v  -36.7365 38.6271 113.0636
v  0.0001 38.6271 118.8821
v  36.7367 38.6271 113.0635
v  69.8772 38.6271 96.1775
v  96.1777 38.6271 69.8770
v  113.0636 38.6271 36.7364
v  118.8821 38.6271 -0.0002
v  113.0635 38.6271 -36.7368
v  96.1775 38.6271 -69.8773
v  69.8769 38.6271 -96.1777
v  36.7363 38.6271 -113.0636
v  -0.0000 -0.0000 -125.0000
v  -38.6271 -0.0000 -118.8821
v  -73.4731 -0.0000 -101.1271
v  -101.1271 -0.0000 -73.4731
v  -118.8821 -0.0000 -38.6271
v  -125.0000 -0.0000 0.0000
v  -118.8820 -0.0000 38.6272
v  -101.1271 -0.0000 73.4732
v  -73.4731 -0.0000 101.1272
v  -38.6270 -0.0000 118.8821
v  0.0001 -0.0000 125.0000
v  38.6273 -0.0000 118.8820
v  73.4733 -0.0000 101.1270
v  101.1272 -0.0000 73.4730
v  118.8821 -0.0000 38.6269
v  125.0000 -0.0000 -0.0002
v  118.8820 -0.0000 -38.6273
v  101.1270 -0.0000 -73.4733
v  73.4730 -0.0000 -101.1273
v  38.6269 -0.0000 -118.8821
v  -0.0000 -38.6271 -118.8821
v  -36.7366 -38.6271 -113.0636
v  -69.8771 -38.6271 -96.1776
v  -96.1776 -38.6271 -69.8771
v  -113.0636 -38.6271 -36.7366
v  -118.8821 -38.6271 0.0000
v  -113.0635 -38.6271 36.7366
v  -96.1776 -38.6271 69.8772
v  -69.8771 -38.6271 96.1777
v  -36.7365 -38.6271 113.0636
v  0.0001 -38.6271 118.8821
v  36.7367 -38.6271 113.0635
v  69.8772 -38.6271 96.1775
v  96.1777 -38.6271 69.8770
v  113.0636 -38.6271 36.7364
v  118.8821 -38.6271 -0.0002
v  113.0635 -38.6271 -36.7368
v  96.1775 -38.6271 -69.8773
v  69.8769 -38.6271 -96.1777
v  36.7363 -38.6271 -113.0636
v  -0.0000 -73.4731 -101.1271
v  -31.2500 -73.4731 -96.1776
v  -59.4410 -73.4731 -81.8136
v  -81.8136 -73.4731 -59.4410
v  -96.1776 -73.4731 -31.2500
v  -101.1271 -73.4731 0.0000
v  -96.1776 -73.4731 31.2500
v  -81.8135 -73.4731 59.4411
v  -59.4410 -73.4731 81.8136
v  -31.2499 -73.4731 96.1776
v  0.0001 -73.4731 101.1271
v  31.2501 -73.4731 96.1776
v  59.4411 -73.4731 81.8135
v  81.8136 -73.4731 59.4409
v  96.1777 -73.4731 31.2499
v  101.1271 -73.4731 -0.0002
v  96.1776 -73.4731 -31.2502
v  81.8135 -73.4731 -59.4412
v  59.4409 -73.4731 -81.8137
v  31.2498 -73.4731 -96.1777
v  -0.0000 -101.1271 -73.4731
v  -22.7045 -101.1271 -69.8771
v  -43.1864 -101.1271 -59.4410
v  -59.4410 -101.1271 -43.1864
v  -69.8771 -101.1271 -22.7044
v  -73.4731 -101.1271 0.0000
v  -69.8771 -101.1271 22.7045
v  -59.4410 -101.1271 43.1865
v  -43.1864 -101.1271 59.4411
v  -22.7044 -101.1271 69.8771
v  0.0001 -101.1271 73.4731
v  22.7045 -101.1271 69.8771
v  43.1865 -101.1271 59.4410
v  59.4411 -101.1271 43.1864
v  69.8771 -101.1271 22.7043
v  73.4731 -101.1271 -0.0001
v  69.8771 -101.1271 -22.7046
v  59.4409 -101.1271 -43.1865
v  43.1863 -101.1271 -59.4411
v  22.7043 -101.1271 -69.8772
v  -0.0000 -118.8821 -38.6271
v  -11.9364 -118.8821 -36.7366
v  -22.7044 -118.8821 -31.2500
v  -31.2500 -118.8821 -22.7044
v  -36.7366 -118.8821 -11.9364
v  -38.6271 -118.8821 0.0000
v  -36.7365 -118.8821 11.9364
v  -31.2500 -118.8821 22.7045
v  -22.7044 -118.8821 31.2500
v  -11.9364 -118.8821 36.7366
v  0.0000 -118.8821 38.6271
v  11.9365 -118.8821 36.7365
v  22.7045 -118.8821 31.2500
v  31.2500 -118.8821 22.7044
v  36.7366 -118.8821 11.9364
v  38.6271 -118.8821 -0.0001
v  36.7365 -118.8821 -11.9365
v  31.2499 -118.8821 -22.7045
v  22.7044 -118.8821 -31.2500
v  11.9364 -118.8821 -36.7366
v  0.0000 -125.0000 -0.0000
# 182 vertices

vn -0.0000 1.0000 -0.0000
vn -0.0000 0.9464 -0.3230
vn -0.0998 0.9464 -0.3072
vn -0.1899 0.9464 -0.2613
vn -0.2613 0.9464 -0.1899
vn -0.3072 0.9464 -0.0998
vn -0.3230 0.9464 0.0000
vn -0.3072 0.9464 0.0998
vn -0.2613 0.9464 0.1899
vn -0.1899 0.9464 0.2613
vn -0.0998 0.9464 0.3072
vn 0.0000 0.9464 0.3230
vn 0.0998 0.9464 0.3072
vn 0.1899 0.9464 0.2613
vn 0.2613 0.9464 0.1899
vn 0.3072 0.9464 0.0998
vn 0.3230 0.9464 -0.0000
vn 0.3072 0.9464 -0.0998
vn 0.2613 0.9464 -0.1899
vn 0.1899 0.9464 -0.2613
vn 0.0998 0.9464 -0.3072
vn -0.0000 0.8016 -0.5978
vn -0.1847 0.8016 -0.5686
vn -0.3514 0.8016 -0.4837
vn -0.4837 0.8016 -0.3514
vn -0.5686 0.8016 -0.1847
vn -0.5978 0.8016 0.0000
vn -0.5686 0.8016 0.1847
vn -0.4837 0.8016 0.3514
vn -0.3514 0.8016 0.4837
vn -0.1847 0.8016 0.5686
vn 0.0000 0.8016 0.5978
vn 0.1847 0.8016 0.5686
vn 0.3514 0.8016 0.4837
vn 0.4837 0.8016 0.3514
vn 0.5686 0.8016 0.1847
vn 0.5978 0.8016 -0.0000
vn 0.5686 0.8016 -0.1847
vn 0.4837 0.8016 -0.3514
vn 0.3514 0.8016 -0.4837
vn 0.1847 0.8016 -0.5686
vn -0.0000 0.5805 -0.8143
vn -0.2516 0.5805 -0.7744
vn -0.4786 0.5805 -0.6588
vn -0.6588 0.5805 -0.4786
vn -0.7744 0.5805 -0.2516
vn -0.8143 0.5805 0.0000
vn -0.7744 0.5805 0.2516
vn -0.6588 0.5805 0.4786
vn -0.4786 0.5805 0.6588
vn -0.2516 0.5805 0.7744
vn 0.0000 0.5805 0.8143
vn 0.2516 0.5805 0.7744
vn 0.4786 0.5805 0.6588
vn 0.6588 0.5805 0.4786
vn 0.7744 0.5805 0.2516
vn 0.8143 0.5805 -0.0000
vn 0.7744 0.5805 -0.2516
vn 0.6588 0.5805 -0.4786
vn 0.4786 0.5805 -0.6588
vn 0.2516 0.5805 -0.7744
vn -0.0000 0.3045 -0.9525
vn -0.2943 0.3045 -0.9059
vn -0.5599 0.3045 -0.7706
vn -0.7706 0.3045 -0.5599
vn -0.9059 0.3045 -0.2943
vn -0.9525 0.3045 0.0000
vn -0.9059 0.3045 0.2943
vn -0.7706 0.3045 0.5599
vn -0.5599 0.3045 0.7706
vn -0.2943 0.3045 0.9059
vn 0.0000 0.3045 0.9525
vn 0.2943 0.3045 0.9059
vn 0.5599 0.3045 0.7706
vn 0.7706 0.3045 0.5599
vn 0.9059 0.3045 0.2943
vn 0.9525 0.3045 -0.0000
vn 0.9059 0.3045 -0.2943
vn 0.7706 0.3045 -0.5599
vn 0.5599 0.3045 -0.7706
vn 0.2943 0.3045 -0.9059
vn -0.0000 -0.0000 -1.0000
vn -0.3090 -0.0000 -0.9511
vn -0.5878 -0.0000 -0.8090
vn -0.8090 -0.0000 -0.5878
vn -0.9511 -0.0000 -0.3090
vn -1.0000 -0.0000 0.0000
vn -0.9511 -0.0000 0.3090
vn -0.8090 -0.0000 0.5878
vn -0.5878 -0.0000 0.8090
vn -0.3090 -0.0000 0.9511
vn 0.0000 -0.0000 1.0000
vn 0.3090 -0.0000 0.9511
vn 0.5878 -0.0000 0.8090
vn 0.8090 -0.0000 0.5878
vn 0.9511 -0.0000 0.3090
vn 1.0000 -0.0000 -0.0000
vn 0.9511 -0.0000 -0.3090
vn 0.8090 -0.0000 -0.5878
vn 0.5878 -0.0000 -0.8090
vn 0.3090 -0.0000 -0.9511
vn -0.0000 -0.3045 -0.9525
vn -0.2943 -0.3045 -0.9059
vn -0.5599 -0.3045 -0.7706
vn -0.7706 -0.3045 -0.5599
vn -0.9059 -0.3045 -0.2943
vn -0.9525 -0.3045 0.0000
vn -0.9059 -0.3045 0.2943
vn -0.7706 -0.3045 0.5599
vn -0.5599 -0.3045 0.7706
vn -0.2943 -0.3045 0.9059
vn 0.0000 -0.3045 0.9525
vn 0.2943 -0.3045 0.9059
vn 0.5599 -0.3045 0.7706
vn 0.7706 -0.3045 0.5599
vn 0.9059 -0.3045 0.2943
vn 0.9525 -0.3045 -0.0000
vn 0.9059 -0.3045 -0.2943
vn 0.7706 -0.3045 -0.5599
vn 0.5599 -0.3045 -0.7706
vn 0.2943 -0.3045 -0.9059
vn -0.0000 -0.5805 -0.8143
vn -0.2516 -0.5805 -0.7744
vn -0.4786 -0.5805 -0.6588
vn -0.6588 -0.5805 -0.4786
vn -0.7744 -0.5805 -0.2516
vn -0.8143 -0.5805 0.0000
vn -0.7744 -0.5805 0.2516
vn -0.6588 -0.5805 0.4786
vn -0.4786 -0.5805 0.6588
vn -0.2516 -0.5805 0.7744
vn 0.0000 -0.5805 0.8143
vn 0.2516 -0.5805 0.7744
vn 0.4786 -0.5805 0.6588
vn 0.6588 -0.5805 0.4786
vn 0.7744 -0.5805 0.2516
vn 0.8143 -0.5805 -0.0000
vn 0.7744 -0.5805 -0.2516
vn 0.6588 -0.5805 -0.4786
vn 0.4786 -0.5805 -0.6588
vn 0.2516 -0.5805 -0.7744
vn -0.0000 -0.8016 -0.5978
vn -0.1847 -0.8016 -0.5686
vn -0.3514 -0.8016 -0.4837
vn -0.4837 -0.8016 -0.3514
vn -0.5686 -0.8016 -0.1847
vn -0.5978 -0.8016 0.0000
vn -0.5686 -0.8016 0.1847
vn -0.4837 -0.8016 0.3514
vn -0.3514 -0.8016 0.4837
vn -0.1847 -0.8016 0.5686
vn 0.0000 -0.8016 0.5978
vn 0.1847 -0.8016 0.5686
vn 0.3514 -0.8016 0.4837
vn 0.4837 -0.8016 0.3514
vn 0.5686 -0.8016 0.1847
vn 0.5978 -0.8016 -0.0000
vn 0.5686 -0.8016 -0.1847
vn 0.4837 -0.8016 -0.3514
vn 0.3514 -0.8016 -0.4837
vn 0.1847 -0.8016 -0.5686
vn -0.0000 -0.9464 -0.3230
vn -0.0998 -0.9464 -0.3072
vn -0.1899 -0.9464 -0.2613
vn -0.2613 -0.9464 -0.1899
vn -0.3072 -0.9464 -0.0998
vn -0.3230 -0.9464 0.0000
vn -0.3072 -0.9464 0.0998
vn -0.2613 -0.9464 0.1899
vn -0.1899 -0.9464 0.2613
vn -0.0998 -0.9464 0.3072
vn 0.0000 -0.9464 0.3230
vn 0.0998 -0.9464 0.3072
vn 0.1899 -0.9464 0.2613
vn 0.2613 -0.9464 0.1899
vn 0.3072 -0.9464 0.0998
vn 0.3230 -0.9464 -0.0000
vn 0.3072 -0.9464 -0.0998
vn 0.2613 -0.9464 -0.1899
vn 0.1899 -0.9464 -0.2613
vn 0.0998 -0.9464 -0.3072
vn -0.0000 -1.0000 -0.0000
# 182 vertex normals

vt 0.0000 392.6991 0.0000
vt 0.0000 353.4292 0.0000
vt 39.2699 353.4292 0.0000
vt 39.2699 392.6991 0.0000
vt 78.5398 353.4292 0.0000
vt 78.5398 392.6991 0.0000
vt 117.8097 353.4292 0.0000
vt 117.8097 392.6991 0.0000
vt 157.0796 353.4292 0.0000
vt 157.0796 392.6991 0.0000
vt 196.3495 353.4292 0.0000
vt 196.3495 392.6991 0.0000
vt 235.6194 353.4292 0.0000
vt 235.6194 392.6991 0.0000
vt 274.8893 353.4292 0.0000
vt 274.8893 392.6991 0.0000
vt 314.1593 353.4292 0.0000
vt 314.1593 392.6991 0.0000
vt 353.4292 353.4292 0.0000
vt 353.4292 392.6991 0.0000
vt 392.6992 353.4292 0.0000
vt 392.6992 392.6991 0.0000
vt 431.9691 353.4292 0.0000
vt 431.9691 392.6991 0.0000
vt 471.2390 353.4292 0.0000
vt 471.2390 392.6991 0.0000
vt 510.5089 353.4292 0.0000
vt 510.5089 392.6991 0.0000
vt 549.7788 353.4292 0.0000
vt 549.7788 392.6991 0.0000
vt 589.0488 353.4292 0.0000
vt 589.0488 392.6991 0.0000
vt 628.3187 353.4292 0.0000
vt 628.3187 392.6991 0.0000
vt 667.5886 353.4292 0.0000
vt 667.5886 392.6991 0.0000
vt 706.8585 353.4292 0.0000
vt 706.8585 392.6991 0.0000
vt 746.1285 353.4292 0.0000
vt 746.1285 392.6991 0.0000
vt 785.3984 353.4292 0.0000
vt 0.0000 314.1593 0.0000
vt 39.2699 314.1593 0.0000
vt 78.5398 314.1593 0.0000
vt 117.8097 314.1593 0.0000
vt 157.0796 314.1593 0.0000
vt 196.3495 314.1593 0.0000
vt 235.6194 314.1593 0.0000
vt 274.8893 314.1593 0.0000
vt 314.1593 314.1593 0.0000
vt 353.4292 314.1593 0.0000
vt 392.6992 314.1593 0.0000
vt 431.9691 314.1593 0.0000
vt 471.2390 314.1593 0.0000
vt 510.5089 314.1593 0.0000
vt 549.7788 314.1593 0.0000
vt 589.0488 314.1593 0.0000
vt 628.3187 314.1593 0.0000
vt 667.5886 314.1593 0.0000
vt 706.8585 314.1593 0.0000
vt 746.1285 314.1593 0.0000
vt 785.3984 314.1593 0.0000
vt 0.0000 274.8894 0.0000
vt 39.2699 274.8894 0.0000
vt 78.5398 274.8894 0.0000
vt 117.8097 274.8894 0.0000
vt 157.0796 274.8894 0.0000
vt 196.3495 274.8894 0.0000
vt 235.6194 274.8894 0.0000
vt 274.8893 274.8894 0.0000
vt 314.1593 274.8894 0.0000
vt 353.4292 274.8894 0.0000
vt 392.6992 274.8894 0.0000
vt 431.9691 274.8894 0.0000
vt 471.2390 274.8894 0.0000
vt 510.5089 274.8894 0.0000
vt 549.7788 274.8894 0.0000
vt 589.0488 274.8894 0.0000
vt 628.3187 274.8894 0.0000
vt 667.5886 274.8894 0.0000
vt 706.8585 274.8894 0.0000
vt 746.1285 274.8894 0.0000
vt 785.3984 274.8894 0.0000
vt 0.0000 235.6195 0.0000
vt 39.2699 235.6195 0.0000
vt 78.5398 235.6195 0.0000
vt 117.8097 235.6195 0.0000
vt 157.0796 235.6195 0.0000
vt 196.3495 235.6195 0.0000
vt 235.6194 235.6195 0.0000
vt 274.8893 235.6195 0.0000
vt 314.1593 235.6195 0.0000
vt 353.4292 235.6195 0.0000
vt 392.6992 235.6195 0.0000
vt 431.9691 235.6195 0.0000
vt 471.2390 235.6195 0.0000
vt 510.5089 235.6195 0.0000
vt 549.7788 235.6195 0.0000
vt 589.0488 235.6195 0.0000
vt 628.3187 235.6195 0.0000
vt 667.5886 235.6195 0.0000
vt 706.8585 235.6195 0.0000
vt 746.1285 235.6195 0.0000
vt 785.3984 235.6195 0.0000
vt 0.0000 196.3495 0.0000
vt 39.2699 196.3495 0.0000
vt 78.5398 196.3495 0.0000
vt 117.8097 196.3495 0.0000
vt 157.0796 196.3495 0.0000
vt 196.3495 196.3495 0.0000
vt 235.6194 196.3495 0.0000
vt 274.8893 196.3495 0.0000
vt 314.1593 196.3495 0.0000
vt 353.4292 196.3495 0.0000
vt 392.6992 196.3495 0.0000
vt 431.9691 196.3495 0.0000
vt 471.2390 196.3495 0.0000
vt 510.5089 196.3495 0.0000
vt 549.7788 196.3495 0.0000
vt 589.0488 196.3495 0.0000
vt 628.3187 196.3495 0.0000
vt 667.5886 196.3495 0.0000
vt 706.8585 196.3495 0.0000
vt 746.1285 196.3495 0.0000
vt 785.3984 196.3495 0.0000
vt 0.0000 157.0797 0.0000
vt 39.2699 157.0797 0.0000
vt 78.5398 157.0797 0.0000
vt 117.8097 157.0797 0.0000
vt 157.0796 157.0797 0.0000
vt 196.3495 157.0797 0.0000
vt 235.6194 157.0797 0.0000
vt 274.8893 157.0797 0.0000
vt 314.1593 157.0797 0.0000
vt 353.4292 157.0797 0.0000
vt 392.6992 157.0797 0.0000
vt 431.9691 157.0797 0.0000
vt 471.2390 157.0797 0.0000
vt 510.5089 157.0797 0.0000
vt 549.7788 157.0797 0.0000
vt 589.0488 157.0797 0.0000
vt 628.3187 157.0797 0.0000
vt 667.5886 157.0797 0.0000
vt 706.8585 157.0797 0.0000
vt 746.1285 157.0797 0.0000
vt 785.3984 157.0797 0.0000
vt 0.0000 117.8098 0.0000
vt 39.2699 117.8098 0.0000
vt 78.5398 117.8098 0.0000
vt 117.8097 117.8098 0.0000
vt 157.0796 117.8098 0.0000
vt 196.3495 117.8098 0.0000
vt 235.6194 117.8098 0.0000
vt 274.8893 117.8098 0.0000
vt 314.1593 117.8098 0.0000
vt 353.4292 117.8098 0.0000
vt 392.6992 117.8098 0.0000
vt 431.9691 117.8098 0.0000
vt 471.2390 117.8098 0.0000
vt 510.5089 117.8098 0.0000
vt 549.7788 117.8098 0.0000
vt 589.0488 117.8098 0.0000
vt 628.3187 117.8098 0.0000
vt 667.5886 117.8098 0.0000
vt 706.8585 117.8098 0.0000
vt 746.1285 117.8098 0.0000
vt 785.3984 117.8098 0.0000
vt 0.0000 78.5398 0.0000
vt 39.2699 78.5398 0.0000
vt 78.5398 78.5398 0.0000
vt 117.8097 78.5398 0.0000
vt 157.0796 78.5398 0.0000
vt 196.3495 78.5398 0.0000
vt 235.6194 78.5398 0.0000
vt 274.8893 78.5398 0.0000
vt 314.1593 78.5398 0.0000
vt 353.4292 78.5398 0.0000
vt 392.6992 78.5398 0.0000
vt 431.9691 78.5398 0.0000
vt 471.2390 78.5398 0.0000
vt 510.5089 78.5398 0.0000
vt 549.7788 78.5398 0.0000
vt 589.0488 78.5398 0.0000
vt 628.3187 78.5398 0.0000
vt 667.5886 78.5398 0.0000
vt 706.8585 78.5398 0.0000
vt 746.1285 78.5398 0.0000
vt 785.3984 78.5398 0.0000
vt 0.0000 39.2699 0.0000
vt 39.2699 39.2699 0.0000
vt 78.5398 39.2699 0.0000
vt 117.8097 39.2699 0.0000
vt 157.0796 39.2699 0.0000
vt 196.3495 39.2699 0.0000
vt 235.6194 39.2699 0.0000
vt 274.8893 39.2699 0.0000
vt 314.1593 39.2699 0.0000
vt 353.4292 39.2699 0.0000
vt 392.6992 39.2699 0.0000
vt 431.9691 39.2699 0.0000
vt 471.2390 39.2699 0.0000
vt 510.5089 39.2699 0.0000
vt 549.7788 39.2699 0.0000
vt 589.0488 39.2699 0.0000
vt 628.3187 39.2699 0.0000
vt 667.5886 39.2699 0.0000
vt 706.8585 39.2699 0.0000
vt 746.1285 39.2699 0.0000
vt 785.3984 39.2699 0.0000
vt 0.0000 -0.0000 0.0000
vt 39.2699 -0.0000 0.0000
vt 78.5398 -0.0000 0.0000
vt 117.8097 -0.0000 0.0000
vt 157.0796 -0.0000 0.0000
vt 196.3495 -0.0000 0.0000
vt 235.6194 -0.0000 0.0000
vt 274.8893 -0.0000 0.0000
vt 314.1593 -0.0000 0.0000
vt 353.4292 -0.0000 0.0000
vt 392.6992 -0.0000 0.0000
vt 431.9691 -0.0000 0.0000
vt 471.2390 -0.0000 0.0000
vt 510.5089 -0.0000 0.0000
vt 549.7788 -0.0000 0.0000
vt 589.0488 -0.0000 0.0000
vt 628.3187 -0.0000 0.0000
vt 667.5886 -0.0000 0.0000
vt 706.8585 -0.0000 0.0000
vt 746.1285 -0.0000 0.0000
# 229 texture coords

g Sphere001
usemtl wire_008008136
s 1
f 1/1/1 2/2/2 3/3/3 
f 1/4/1 3/3/3 4/5/4 
f 1/6/1 4/5/4 5/7/5 
f 1/8/1 5/7/5 6/9/6 
f 1/10/1 6/9/6 7/11/7 
f 1/12/1 7/11/7 8/13/8 
f 1/14/1 8/13/8 9/15/9 
f 1/16/1 9/15/9 10/17/10 
f 1/18/1 10/17/10 11/19/11 
f 1/20/1 11/19/11 12/21/12 
f 1/22/1 12/21/12 13/23/13 
f 1/24/1 13/23/13 14/25/14 
f 1/26/1 14/25/14 15/27/15 
f 1/28/1 15/27/15 16/29/16 
f 1/30/1 16/29/16 17/31/17 
f 1/32/1 17/31/17 18/33/18 
f 1/34/1 18/33/18 19/35/19 
f 1/36/1 19/35/19 20/37/20 
f 1/38/1 20/37/20 21/39/21 
f 1/40/1 21/39/21 2/41/2 
f 2/2/2 22/42/22 23/43/23 3/3/3 
f 3/3/3 23/43/23 24/44/24 4/5/4 
f 4/5/4 24/44/24 25/45/25 5/7/5 
f 5/7/5 25/45/25 26/46/26 6/9/6 
f 6/9/6 26/46/26 27/47/27 7/11/7 
f 7/11/7 27/47/27 28/48/28 8/13/8 
f 8/13/8 28/48/28 29/49/29 9/15/9 
f 9/15/9 29/49/29 30/50/30 10/17/10 
f 10/17/10 30/50/30 31/51/31 11/19/11 
f 11/19/11 31/51/31 32/52/32 12/21/12 
f 12/21/12 32/52/32 33/53/33 13/23/13 
f 13/23/13 33/53/33 34/54/34 14/25/14 
f 14/25/14 34/54/34 35/55/35 15/27/15 
f 15/27/15 35/55/35 36/56/36 16/29/16 
f 16/29/16 36/56/36 37/57/37 17/31/17 
f 17/31/17 37/57/37 38/58/38 18/33/18 
f 18/33/18 38/58/38 39/59/39 19/35/19 
f 19/35/19 39/59/39 40/60/40 20/37/20 
f 20/37/20 40/60/40 41/61/41 21/39/21 
f 21/39/21 41/61/41 22/62/22 2/41/2 
f 22/42/22 42/63/42 43/64/43 23/43/23 
f 23/43/23 43/64/43 44/65/44 24/44/24 
f 24/44/24 44/65/44 45/66/45 25/45/25 
f 25/45/25 45/66/45 46/67/46 26/46/26 
f 26/46/26 46/67/46 47/68/47 27/47/27 
f 27/47/27 47/68/47 48/69/48 28/48/28 
f 28/48/28 48/69/48 49/70/49 29/49/29 
f 29/49/29 49/70/49 50/71/50 30/50/30 
f 30/50/30 50/71/50 51/72/51 31/51/31 
f 31/51/31 51/72/51 52/73/52 32/52/32 
f 32/52/32 52/73/52 53/74/53 33/53/33 
f 33/53/33 53/74/53 54/75/54 34/54/34 
f 34/54/34 54/75/54 55/76/55 35/55/35 
f 35/55/35 55/76/55 56/77/56 36/56/36 
f 36/56/36 56/77/56 57/78/57 37/57/37 
f 37/57/37 57/78/57 58/79/58 38/58/38 
f 38/58/38 58/79/58 59/80/59 39/59/39 
f 39/59/39 59/80/59 60/81/60 40/60/40 
f 40/60/40 60/81/60 61/82/61 41/61/41 
f 41/61/41 61/82/61 42/83/42 22/62/22 
f 42/63/42 62/84/62 63/85/63 43/64/43 
f 43/64/43 63/85/63 64/86/64 44/65/44 
f 44/65/44 64/86/64 65/87/65 45/66/45 
f 45/66/45 65/87/65 66/88/66 46/67/46 
f 46/67/46 66/88/66 67/89/67 47/68/47 
f 47/68/47 67/89/67 68/90/68 48/69/48 
f 48/69/48 68/90/68 69/91/69 49/70/49 
f 49/70/49 69/91/69 70/92/70 50/71/50 
f 50/71/50 70/92/70 71/93/71 51/72/51 
f 51/72/51 71/93/71 72/94/72 52/73/52 
f 52/73/52 72/94/72 73/95/73 53/74/53 
f 53/74/53 73/95/73 74/96/74 54/75/54 
f 54/75/54 74/96/74 75/97/75 55/76/55 
f 55/76/55 75/97/75 76/98/76 56/77/56 
f 56/77/56 76/98/76 77/99/77 57/78/57 
f 57/78/57 77/99/77 78/100/78 58/79/58 
f 58/79/58 78/100/78 79/101/79 59/80/59 
f 59/80/59 79/101/79 80/102/80 60/81/60 
f 60/81/60 80/102/80 81/103/81 61/82/61 
f 61/82/61 81/103/81 62/104/62 42/83/42 
f 62/84/62 82/105/82 83/106/83 63/85/63 
f 63/85/63 83/106/83 84/107/84 64/86/64 
f 64/86/64 84/107/84 85/108/85 65/87/65 
f 65/87/65 85/108/85 86/109/86 66/88/66 
f 66/88/66 86/109/86 87/110/87 67/89/67 
f 67/89/67 87/110/87 88/111/88 68/90/68 
f 68/90/68 88/111/88 89/112/89 69/91/69 
f 69/91/69 89/112/89 90/113/90 70/92/70 
f 70/92/70 90/113/90 91/114/91 71/93/71 
f 71/93/71 91/114/91 92/115/92 72/94/72 
f 72/94/72 92/115/92 93/116/93 73/95/73 
f 73/95/73 93/116/93 94/117/94 74/96/74 
f 74/96/74 94/117/94 95/118/95 75/97/75 
f 75/97/75 95/118/95 96/119/96 76/98/76 
f 76/98/76 96/119/96 97/120/97 77/99/77 
f 77/99/77 97/120/97 98/121/98 78/100/78 
f 78/100/78 98/121/98 99/122/99 79/101/79 
f 79/101/79 99/122/99 100/123/100 80/102/80 
f 80/102/80 100/123/100 101/124/101 81/103/81 
f 81/103/81 101/124/101 82/125/82 62/104/62 
f 82/105/82 102/126/102 103/127/103 83/106/83 
f 83/106/83 103/127/103 104/128/104 84/107/84 
f 84/107/84 104/128/104 105/129/105 85/108/85 
f 85/108/85 105/129/105 106/130/106 86/109/86 
f 86/109/86 106/130/106 107/131/107 87/110/87 
f 87/110/87 107/131/107 108/132/108 88/111/88 
f 88/111/88 108/132/108 109/133/109 89/112/89 
f 89/112/89 109/133/109 110/134/110 90/113/90 
f 90/113/90 110/134/110 111/135/111 91/114/91 
f 91/114/91 111/135/111 112/136/112 92/115/92 
f 92/115/92 112/136/112 113/137/113 93/116/93 
f 93/116/93 113/137/113 114/138/114 94/117/94 
f 94/117/94 114/138/114 115/139/115 95/118/95 
f 95/118/95 115/139/115 116/140/116 96/119/96 
f 96/119/96 116/140/116 117/141/117 97/120/97 
f 97/120/97 117/141/117 118/142/118 98/121/98 
f 98/121/98 118/142/118 119/143/119 99/122/99 
f 99/122/99 119/143/119 120/144/120 100/123/100 
f 100/123/100 120/144/120 121/145/121 101/124/101 
f 101/124/101 121/145/121 102/146/102 82/125/82 
f 102/126/102 122/147/122 123/148/123 103/127/103 
f 103/127/103 123/148/123 124/149/124 104/128/104 
f 104/128/104 124/149/124 125/150/125 105/129/105 
f 105/129/105 125/150/125 126/151/126 106/130/106 
f 106/130/106 126/151/126 127/152/127 107/131/107 
f 107/131/107 127/152/127 128/153/128 108/132/108 
f 108/132/108 128/153/128 129/154/129 109/133/109 
f 109/133/109 129/154/129 130/155/130 110/134/110 
f 110/134/110 130/155/130 131/156/131 111/135/111 
f 111/135/111 131/156/131 132/157/132 112/136/112 
f 112/136/112 132/157/132 133/158/133 113/137/113 
f 113/137/113 133/158/133 134/159/134 114/138/114 
f 114/138/114 134/159/134 135/160/135 115/139/115 
f 115/139/115 135/160/135 136/161/136 116/140/116 
f 116/140/116 136/161/136 137/162/137 117/141/117 
f 117/141/117 137/162/137 138/163/138 118/142/118 
f 118/142/118 138/163/138 139/164/139 119/143/119 
f 119/143/119 139/164/139 140/165/140 120/144/120 
f 120/144/120 140/165/140 141/166/141 121/145/121 
f 121/145/121 141/166/141 122/167/122 102/146/102 
f 122/147/122 142/168/142 143/169/143 123/148/123 
f 123/148/123 143/169/143 144/170/144 124/149/124 
f 124/149/124 144/170/144 145/171/145 125/150/125 
f 125/150/125 145/171/145 146/172/146 126/151/126 
f 126/151/126 146/172/146 147/173/147 127/152/127 
f 127/152/127 147/173/147 148/174/148 128/153/128 
f 128/153/128 148/174/148 149/175/149 129/154/129 
f 129/154/129 149/175/149 150/176/150 130/155/130 
f 130/155/130 150/176/150 151/177/151 131/156/131 
f 131/156/131 151/177/151 152/178/152 132/157/132 
f 132/157/132 152/178/152 153/179/153 133/158/133 
f 133/158/133 153/179/153 154/180/154 134/159/134 
f 134/159/134 154/180/154 155/181/155 135/160/135 
f 135/160/135 155/181/155 156/182/156 136/161/136 
f 136/161/136 156/182/156 157/183/157 137/162/137 
f 137/162/137 157/183/157 158/184/158 138/163/138 
f 138/163/138 158/184/158 159/185/159 139/164/139 
f 139/164/139 159/185/159 160/186/160 140/165/140 
f 140/165/140 160/186/160 161/187/161 141/166/141 
f 141/166/141 161/187/161 142/188/142 122/167/122 
f 142/168/142 162/189/162 163/190/163 143/169/143 
f 143/169/143 163/190/163 164/191/164 144/170/144 
f 144/170/144 164/191/164 165/192/165 145/171/145 
f 145/171/145 165/192/165 166/193/166 146/172/146 
f 146/172/146 166/193/166 167/194/167 147/173/147 
f 147/173/147 167/194/167 168/195/168 148/174/148 
f 148/174/148 168/195/168 169/196/169 149/175/149 
f 149/175/149 169/196/169 170/197/170 150/176/150 
f 150/176/150 170/197/170 171/198/171 151/177/151 
f 151/177/151 171/198/171 172/199/172 152/178/152 
f 152/178/152 172/199/172 173/200/173 153/179/153 
f 153/179/153 173/200/173 174/201/174 154/180/154 
f 154/180/154 174/201/174 175/202/175 155/181/155 
f 155/181/155 175/202/175 176/203/176 156/182/156 
f 156/182/156 176/203/176 177/204/177 157/183/157 
f 157/183/157 177/204/177 178/205/178 158/184/158 
f 158/184/158 178/205/178 179/206/179 159/185/159 
f 159/185/159 179/206/179 180/207/180 160/186/160 
f 160/186/160 180/207/180 181/208/181 161/187/161 
f 161/187/161 181/208/181 162/209/162 142/188/142 
f 182/210/182 163/190/163 162/189/162 
f 182/211/182 164/191/164 163/190/163 
f 182/212/182 165/192/165 164/191/164 
f 182/213/182 166/193/166 165/192/165 
f 182/214/182 167/194/167 166/193/166 
f 182/215/182 168/195/168 167/194/167 
f 182/216/182 169/196/169 168/195/168 
f 182/217/182 170/197/170 169/196/169 
f 182/218/182 171/198/171 170/197/170 
f 182/219/182 172/199/172 171/198/171 
f 182/220/182 173/200/173 172/199/172 
f 182/221/182 174/201/174 173/200/173 
f 182/222/182 175/202/175 174/201/174 
f 182/223/182 176/203/176 175/202/175 
f 182/224/182 177/204/177 176/203/176 
f 182/225/182 178/205/178 177/204/177 
f 182/226/182 179/206/179 178/205/178 
f 182/227/182 180/207/180 179/206/179 
f 182/228/182 181/208/181 180/207/180 
f 182/229/182 162/209/162 181/208/181 
# 160 polygons - 40 triangles

