# 3ds Max Wavefront OBJ Exporter v0.97b - (c)2007 guruware
# File Created: 28.02.2014 17:11:11

mtllib tetrahedron.mtl

#
# object Hedra001
#

v  0.0000 92.3760 130.6395
v  130.6395 -92.3760 -0.0000
v  0.0000 92.3760 -130.6395
v  -130.6395 -92.3760 -0.0000
# 4 vertices

vn 0.8165 0.5774 -0.0000
vn 0.0000 -0.5774 -0.8165
vn -0.8165 0.5774 -0.0000
vn -0.0000 -0.5774 0.8165
# 4 vertex normals

vt -0.5000 0.5000 0.0000
vt 0.0000 -0.5000 0.5000
vt 0.5000 0.5000 0.0000
vt -0.5000 -0.5000 0.0000
vt 0.5000 0.0000 0.5000
vt 0.0000 -0.5000 -0.5000
vt 0.5000 0.0000 -0.5000
# 7 texture coords

g Hedra001
usemtl wire_028089177
s off
f 1/1/1 2/2/1 3/3/1 
f 2/1/2 4/4/2 3/5/2 
f 4/6/3 1/1/3 3/3/3 
f 4/4/4 2/1/4 1/7/4 
# 0 polygons - 4 triangles

